<svg width="40" height="40" viewBox="0 0 40 40" fill="none" xmlns="http://www.w3.org/2000/svg">
<path d="M27.0903 23.7119L21.6629 30.1937L28.7497 38.6574C30.2484 40.4475 32.6765 40.4475 34.1753 38.6574C35.6745 36.8667 35.6751 33.9672 34.1764 32.1748L27.0903 23.7119Z" fill="#F4F4F4"/>
<path d="M10.4946 16.8547L14.7212 21.9031L20.1486 15.4206L15.9227 10.3728L21.0334 4.26775C21.4531 3.76652 21.4531 2.95266 21.0334 2.45054L20.0878 1.32196C19.5684 0.701573 18.8308 0.415442 18.1054 0.554722L9.93569 2.11888C9.45908 2.21014 9.01925 2.47854 8.67802 2.88532L8.3166 3.3178L8.02132 2.96422C7.60168 2.46299 6.9203 2.46299 6.50057 2.96422L4.29143 5.60306C3.87112 6.10429 3.87112 6.91815 4.29143 7.41948L4.58671 7.77296L0.314731 12.8747C-0.10491 13.3759 -0.10491 14.1898 0.314731 14.6911L5.55052 20.9449C5.97016 21.4461 6.65155 21.4461 7.07127 20.9449L10.4946 16.8547Z" fill="#F4F4F4"/>
<path d="M38.9609 7.44499C38.8124 7.26785 38.6183 7.17878 38.4246 7.17878C38.2309 7.17878 38.0367 7.26785 37.8884 7.44499L34.8761 11.0406C34.6118 11.3578 34.2646 11.5155 33.9182 11.5155C33.5717 11.5155 33.2246 11.3577 32.9602 11.0406L30.7562 8.40729C30.5003 8.10562 30.3593 7.69326 30.3593 7.26387C30.3593 6.83447 30.5004 6.42311 30.7556 6.11904L33.7679 2.52188C34.064 2.1683 34.064 1.59424 33.7679 1.24146C33.0809 0.421625 32.1721 0 31.257 0C30.5451 0 29.8295 0.255247 29.2117 0.776599L27.575 2.15744C26.0192 3.46864 25.0537 5.55953 24.9514 7.83085L24.7577 12.1552L7.56137 32.6962C6.1624 34.3679 6.1624 37.0747 7.56137 38.7457C8.26144 39.5812 9.17788 39.9997 10.0944 39.9997C11.0108 39.9997 11.9266 39.5819 12.6267 38.7465L29.8249 18.2056L33.444 17.9743C35.3448 17.8527 37.0948 16.6994 38.1932 14.8412L39.35 12.8857C40.3468 11.2007 40.1817 8.90314 38.9609 7.44499ZM10.2719 37.303C9.43312 37.303 8.75298 36.4907 8.75298 35.4887C8.75298 34.487 9.43303 33.6747 10.2719 33.6747C11.1106 33.6747 11.7906 34.487 11.7906 35.4887C11.7906 36.4907 11.1106 37.303 10.2719 37.303Z" fill="#F4F4F4"/>
</svg>
